<svg width="20" height="20" viewBox="0 0 20 20" fill="none" xmlns="http://www.w3.org/2000/svg">
<mask id="mask0_0_1" style="mask-type:alpha" maskUnits="userSpaceOnUse" x="3" y="3" width="13" height="13">
<rect x="3.80933" y="3.80933" width="11.4286" height="11.4286" fill="#C4C4C4"/>
</mask>
<g mask="url(#mask0_0_1)">
<path d="M9.89311 15.2379C10.4725 15.2379 11.0023 15.1287 11.4826 14.9103C11.9626 14.6922 12.3752 14.4006 12.7203 14.0355C13.0657 13.6704 13.3336 13.2517 13.5241 12.7793C13.7145 12.3073 13.8098 11.8173 13.8098 11.3093V8.21409C13.8098 8.04742 13.7523 7.90663 13.6374 7.79171C13.5222 7.67647 13.3812 7.61885 13.2145 7.61885C13.0479 7.61885 12.9071 7.67647 12.7922 7.79171C12.6769 7.90663 12.6193 8.04742 12.6193 8.21409V10.9522H12.3812C11.9844 10.9522 11.6471 11.0911 11.3693 11.3688C11.0915 11.6466 10.9526 11.9839 10.9526 12.3808H10.4764C10.4764 11.9046 10.6312 11.486 10.9407 11.125C11.2503 10.7638 11.651 10.5514 12.1431 10.4879V5.35695C12.1431 5.19028 12.0857 5.04933 11.9707 4.93409C11.8555 4.81917 11.7145 4.76171 11.5479 4.76171C11.3812 4.76171 11.2404 4.81917 11.1255 4.93409C11.0103 5.04933 10.9526 5.19028 10.9526 5.35695V9.04742H10.4764V4.40456C10.4764 4.2379 10.4188 4.09695 10.3036 3.98171C10.1887 3.86679 10.0479 3.80933 9.88121 3.80933C9.71454 3.80933 9.57375 3.86679 9.45883 3.98171C9.34359 4.09695 9.28597 4.2379 9.28597 4.40456V9.04742H8.80978V5.11885C8.80978 4.95218 8.75216 4.81123 8.63692 4.69599C8.522 4.58107 8.38121 4.52361 8.21454 4.52361C8.04787 4.52361 7.90708 4.58107 7.79216 4.69599C7.67692 4.81123 7.6193 4.95218 7.6193 5.11885V9.52361H7.14311V6.54742C7.14311 6.38075 7.08565 6.2398 6.97073 6.12456C6.85549 6.00964 6.71454 5.95218 6.54787 5.95218C6.38121 5.95218 6.24041 6.00964 6.12549 6.12456C6.01026 6.2398 5.95264 6.38075 5.95264 6.54742V11.3093C5.95264 11.8173 6.04994 12.3093 6.24454 12.7855C6.43883 13.2617 6.71057 13.6804 7.05978 14.0417C7.40899 14.4027 7.82375 14.6922 8.30407 14.9103C8.78407 15.1287 9.31375 15.2379 9.89311 15.2379Z" fill="white"/>
</g>
<circle cx="10" cy="10" r="9.5" stroke="white"/>
</svg>
